<svg width="24" height="24" viewBox="0 0 24 24" fill="none" xmlns="http://www.w3.org/2000/svg">
<path d="M19 8C20.6569 8 22 6.65685 22 5C22 3.34315 20.6569 2 19 2C17.3431 2 16 3.34315 16 5C16 6.65685 17.3431 8 19 8Z" fill="#FC9067"/>
<path d="M17.7892 9.33976C16.2792 8.93976 15.0592 7.71976 14.6592 6.20976C14.3992 5.24976 14.4592 4.32976 14.7492 3.50976C14.9492 2.94976 14.6092 2.32976 14.0292 2.20976C12.5592 1.89976 10.9692 1.90976 9.30923 2.35976C5.52923 3.41976 2.63923 6.68976 2.09923 10.5798C1.17923 17.1998 6.78923 22.8098 13.4092 21.8998C17.3092 21.3598 20.5692 18.4698 21.6192 14.6798C22.0792 13.0298 22.0892 11.4398 21.7792 9.95976C21.6592 9.37976 21.0392 9.04976 20.4792 9.23976C19.6692 9.52976 18.7492 9.58976 17.7892 9.33976Z" fill="#FC9067"/>
</svg>
