<svg width="36" height="36" viewBox="0 0 36 36" fill="none" xmlns="http://www.w3.org/2000/svg">
<rect width="36" height="36" rx="10" fill="#FFD9CB" fill-opacity="0.5"/>
<path d="M15 20.5H21M18 17.5V23.5M24.6627 14.9398C25.5257 15.9466 26 17.2289 26 18.5549V26C26 27.1046 25.1046 28 24 28H12C10.8954 28 10 27.1046 10 26V18.5549C10 17.2289 10.4743 15.9466 11.3373 14.9398C12.3926 13.7086 13.9333 13 15.5549 13H20.4451C22.0667 13 23.6074 13.7086 24.6627 14.9398ZM14.5 10.5H21.5C22.3284 10.5 23 9.82843 23 9C23 8.17157 22.3284 7.5 21.5 7.5H14.5C13.6716 7.5 13 8.17157 13 9C13 9.82843 13.6716 10.5 14.5 10.5Z" stroke="#FC9067" stroke-width="1.5" stroke-linecap="round" stroke-linejoin="round"/>
</svg>
