 <svg width="36" height="36" viewBox="0 0 36 36" fill="none" xmlns="http://www.w3.org/2000/svg">
<rect width="36" height="36" rx="10" fill="#FFD9CB" fill-opacity="0.5"/>
<path d="M15.5 8.99988H16.5C17.6046 8.99988 18.5 9.89531 18.5 10.9999V15C18.5 17.7614 16.2614 20 13.5 20M11.5 8.99988H10.5C9.39543 8.99988 8.5 9.8953 8.5 10.9999V15C8.5 17.7614 10.7386 20 13.5 20M13.5 20V22.5C13.5 25.5376 15.9624 28 19 28C22.0376 28 24.5 25.5376 24.5 22.5V21.5M24.5 21.5C25.8807 21.5 27 20.3807 27 19C27 17.6193 25.8807 16.5 24.5 16.5C23.1193 16.5 22 17.6193 22 19C22 20.3807 23.1193 21.5 24.5 21.5ZM15.5 8L15.5 9.9998M11.5 8.00002V10" stroke="#FC9067" stroke-width="1.5" stroke-linecap="round" stroke-linejoin="round"/>
</svg>