<svg width="36" height="36" viewBox="0 0 36 36" fill="none" xmlns="http://www.w3.org/2000/svg">
<rect width="36" height="36" rx="10" fill="#FFD9CB" fill-opacity="0.5"/>
<path d="M8.5 20H15C16 20 17 21.5 18 21.5C18.8643 21.5 20.4757 20.7529 21.2199 22.1645C21.4551 22.6106 21.141 23.1203 20.6751 23.3135C19.596 23.7609 18.3941 24.3686 18 24.5L15 23.5M21.5 22.5L26.076 20.6696C26.3538 20.5585 26.6559 20.5223 26.9521 20.5646C27.9989 20.7141 28.2946 22.0853 27.4025 22.653L19.7586 27.5173C19.2761 27.8243 18.6853 27.9101 18.1354 27.753L8.5 25M18 18C16.075 17.3223 12.5 14.4091 12.5 11.2045C12.5 9.43474 13.8543 8 15.525 8C16.5481 8 17.4526 8.53804 18 9.36158C18.5474 8.53804 19.4519 8 20.475 8C22.1457 8 23.5 9.43474 23.5 11.2045C23.5 14.4091 19.925 17.3223 18 18Z" stroke="#FC9067" stroke-width="1.5" stroke-linecap="round" stroke-linejoin="round"/>
</svg>
