<svg width="36" height="36" viewBox="0 0 36 36" fill="none" xmlns="http://www.w3.org/2000/svg">
<rect width="36" height="36" rx="10" fill="#FFD9CB" fill-opacity="0.5"/>
<path d="M14.5 12H21.5M16 23H20M18 25V21M21 17.1736C23.3649 18.2971 25 20.7076 25 23.5V25.5C25 26.6046 24.1046 27.5 23 27.5H13C11.8954 27.5 11 26.6046 11 25.5V23.5C11 20.7076 12.6351 18.2971 15 17.1736M18 18C16.067 18 14.5 16.433 14.5 14.5V10C14.5 8.89543 15.3954 8 16.5 8H19.5C20.6046 8 21.5 8.89543 21.5 10V14.5C21.5 16.433 19.933 18 18 18Z" stroke="#FC9067" stroke-width="1.5" stroke-linecap="round" stroke-linejoin="round"/>
</svg>
