<svg width="36" height="36" viewBox="0 0 36 36" fill="none" xmlns="http://www.w3.org/2000/svg">
<rect width="36" height="36" rx="10" fill="#FFD9CB" fill-opacity="0.5"/>
<path d="M15 20.5H18M18 20.5H21M18 20.5V17.5M18 20.5V23.5M13 13H23M13 13C13 10.7909 14.7909 9 17 9H19C21.2091 9 23 10.7909 23 13M13 13C10.7909 13 9 14.7909 9 17V23C9 25.2091 10.7909 27 13 27H23C25.2091 27 27 25.2091 27 23V17C27 14.7909 25.2091 13 23 13" stroke="#FC9067" stroke-width="1.5" stroke-linecap="round" stroke-linejoin="round"/>
</svg>